<svg width="30" height="30" viewBox="0 0 30 30" fill="none" xmlns="http://www.w3.org/2000/svg">
<path d="M0 15C0 6.71572 6.71572 0 15 0C23.2843 0 30 6.71572 30 15C30 23.2843 23.2843 30 15 30C6.71572 30 0 23.2843 0 15Z" fill="#939598"/>
<path fill-rule="evenodd" clip-rule="evenodd" d="M14.5505 0C14.4749 6.0808 14.0599 9.4985 11.7792 11.7792C9.4985 14.0598 6.0808 14.4749 0 14.5505V15.4495C6.0808 15.5251 9.49852 15.9401 11.7792 18.2208C14.0599 20.5015 14.4749 23.9192 14.5505 30H15.4495C15.5251 23.9192 15.9402 20.5015 18.2208 18.2208C20.5015 15.9401 23.9192 15.5251 30 15.4495V14.5505C23.9192 14.4749 20.5015 14.0598 18.2208 11.7792C15.9401 9.4985 15.5251 6.08077 15.4495 0H14.5505Z" fill="white"/>
</svg>
