<svg width="117" height="18" viewBox="0 0 117 18" fill="none" xmlns="http://www.w3.org/2000/svg">
<path d="M4.44434 4.86328C4.3637 4.52587 4.38162 4.16596 4.42642 3.9815C4.53843 3.44614 4.90132 2.84779 5.95864 2.84779C6.93532 2.84779 7.51327 3.45964 7.51327 4.37291V5.41215H11.6843V4.23344C11.6843 0.580356 8.40483 0 6.03929 0C3.06893 0 0.640667 0.989753 0.197128 3.73407C0.0761634 4.48538 0.0537623 5.15121 0.228489 5.997C0.954279 9.42964 6.895 10.4239 7.76416 12.5969C7.92545 13.0017 7.87616 13.5191 7.79552 13.8385C7.65664 14.4054 7.2803 14.9723 6.16025 14.9723C5.11637 14.9723 4.48914 14.3604 4.48914 13.4426L4.48466 11.8275H0V13.1142C0 16.8708 2.939 18 6.07961 18C9.10373 18 11.5858 16.9653 11.989 14.1535C12.1906 12.7048 12.0383 11.7601 11.9711 11.4046C11.2632 7.87303 4.91924 6.82929 4.44434 4.86328ZM58.8382 4.90377C58.7621 4.57086 58.7845 4.21995 58.8248 4.03549C58.9458 3.49563 59.3042 2.91077 60.3391 2.91077C61.3068 2.91077 61.8713 3.51362 61.8713 4.42239V5.44814H65.9931V4.27843C65.9931 0.661335 62.7629 0.0899778 60.4242 0.0899778C57.4763 0.0899778 55.0704 1.06623 54.6314 3.78805C54.5149 4.53037 54.488 5.1872 54.6717 6.02399C55.3885 9.42064 61.2755 10.4059 62.1267 12.5519C62.279 12.9568 62.2342 13.4786 62.1581 13.7846C62.0281 14.3424 61.6563 14.9048 60.5452 14.9048C59.5058 14.9048 58.8786 14.3019 58.8786 13.3977V11.7871H54.4387V13.0692C54.4387 16.7808 57.3329 17.901 60.4556 17.901C63.4439 17.901 65.9125 16.8753 66.3067 14.0995C66.4949 12.6643 66.3515 11.7286 66.2754 11.3777C65.5854 7.89553 59.3131 6.84729 58.8382 4.90377ZM96.8168 14.0545L92.8787 0.530867H86.6736V17.1497H90.782L90.5445 3.1942L94.7738 17.1497H100.728V0.535366H96.5973L96.8168 14.0545ZM17.9028 0.535366L14.8025 17.3297H19.323L21.6572 1.78156L23.9376 17.3297H28.4223L25.3354 0.535366H17.9028ZM43.1666 0.535366L41.0564 13.6631L38.9462 0.535366H32.1274L31.7645 17.3297H35.9445L36.0565 1.78156L38.9328 17.3297H43.1755L46.0563 1.78156L46.1683 17.3297H50.3573L49.9809 0.535366H43.1666ZM82.0322 0.535366H77.8029V12.9613C77.8074 13.1772 77.8029 13.4201 77.767 13.6001C77.6774 14.0185 77.328 14.8193 76.1586 14.8193C75.0072 14.8193 74.6443 14.0185 74.5637 13.6001C74.5234 13.4201 74.5144 13.1772 74.5234 12.9613V0.535366H70.2941V12.5744C70.2896 12.8848 70.312 13.5191 70.3299 13.6856C70.6211 16.8213 73.0852 17.8425 76.1586 17.8425C79.241 17.8425 81.7006 16.8258 81.9963 13.6856C82.0187 13.5191 82.0501 12.8848 82.0322 12.5744V0.535366ZM111.077 7.90002V10.3519H112.793V12.7813C112.798 12.9973 112.789 13.2312 112.748 13.4201C112.681 13.8745 112.251 14.6438 111.037 14.6438C109.827 14.6438 109.406 13.87 109.334 13.4201C109.303 13.2312 109.29 12.9973 109.29 12.7813V5.10622C109.29 4.83629 109.308 4.53937 109.366 4.31442C109.446 3.90502 109.809 3.09973 111.028 3.09973C112.309 3.09973 112.627 3.95001 112.699 4.31442C112.748 4.55736 112.748 4.96226 112.748 4.96226V5.89353H116.96V5.34017C116.96 5.34017 116.978 4.76431 116.928 4.22894C116.61 1.07973 114.025 0.0809799 111.064 0.0809799C108.093 0.0809799 105.562 1.08873 105.195 4.22894C105.159 4.51687 105.11 5.03424 105.11 5.34017V12.4034C105.11 12.7093 105.119 12.9478 105.177 13.5101C105.45 16.5739 108.098 17.6581 111.055 17.6581C114.03 17.6581 116.655 16.5739 116.937 13.5101C116.987 12.9478 116.991 12.7093 117 12.4034V7.90452H111.077V7.90002Z" fill="black"/>
</svg>
